<?xml version="1.0" encoding="UTF-8"?>
<svg version="1.1" xmlns="http://www.w3.org/2000/svg" width="791" height="889">
<path d="M0 0 C261.03 0 522.06 0 791 0 C791 293.37 791 586.74 791 889 C529.97 889 268.94 889 0 889 C0 595.63 0 302.26 0 0 Z " fill="#181D23" transform="translate(0,0)"/>
<path d="M0 0 C1.98 0.99 1.98 0.99 4 2 C4 2.66 4 3.32 4 4 C4.8353125 4.309375 4.8353125 4.309375 5.6875 4.625 C8.28980857 6.17231861 9.85001763 8.07502213 11.72265625 10.42578125 C15.07755699 14.56041427 19.07552462 17.98722798 23.15625 21.375 C23.7646875 21.91125 24.373125 22.4475 25 23 C25.84998188 23.69399619 26.69996376 24.38799238 27.57570267 25.10301876 C30.61618622 28.73632879 30.70183908 31.4456814 30.63250732 35.97669983 C30.64015743 36.77612847 30.64780755 37.57555712 30.65568948 38.39921087 C30.67529788 41.08048716 30.65931797 43.76036601 30.64355469 46.44165039 C30.65037467 48.36878829 30.65939901 50.29591947 30.67045593 52.22303772 C30.69446669 57.48975085 30.6876784 62.75604253 30.67596722 68.02278066 C30.66905668 73.63750687 30.69134079 79.25211913 30.71051025 84.86680603 C30.74295965 95.6202405 30.7506245 106.37354159 30.74893594 117.12701935 C30.74773101 130.11662158 30.77282996 143.10613569 30.80078125 156.09570312 C30.80570513 158.42090669 30.81062355 160.74611027 30.8155365 163.07131386 C30.8229107 166.56117827 30.83031985 170.05104257 30.83789349 173.54090655 C30.85294379 180.5717312 30.86513638 187.60255442 30.87534618 194.63338768 C30.92356177 227.01168363 31.13003994 259.38535952 31.484375 291.76171875 C31.4956672 292.79375561 31.5069594 293.82579247 31.51859379 294.88910317 C31.55263507 297.99453568 31.58676016 301.09996725 31.62091064 304.20539856 C31.66565799 308.27747501 31.71030683 312.34955253 31.75488281 316.42163086 C31.76581797 317.41673994 31.77675313 318.41184902 31.78801966 319.43711293 C32.01998473 340.66084804 32.16411557 361.88473269 32.28125 383.109375 C32.29090017 384.82940619 32.30056655 386.5494373 32.31024933 388.26946831 C32.38613127 401.7999048 32.45715324 415.33036617 32.52606201 428.86083984 C32.58679188 440.77703863 32.65022304 452.69321831 32.71875 464.609375 C32.72343796 465.43051725 32.72812592 466.25165951 32.73295593 467.09768486 C32.94191356 503.40146935 33.42739488 539.70030787 34 576 C34.66386719 575.33613281 35.32773437 574.67226563 36.01171875 573.98828125 C120.50585938 489.49414062 120.50585938 489.49414062 205 405 C200.58795548 399.63065847 200.58795548 399.63065847 195.46914673 394.96124268 C194.83822805 394.460688 194.20730938 393.96013332 193.55727196 393.44441032 C192.88691225 392.92038187 192.21655254 392.39635342 191.52587891 391.85644531 C124.75701641 338.39315313 124.75701641 338.39315313 120.61672974 305.23449707 C118.41297235 281.22146502 121.00778362 256.70496223 125 233 C126.15224028 233.92961422 127.29659176 234.8690125 128.4375 235.8125 C129.07558594 236.33457031 129.71367188 236.85664063 130.37109375 237.39453125 C132 239 132 239 133 242 C134.32407669 242.68486725 135.65909241 243.34870203 137 244 C139.25 246 139.25 246 141 248 C141 248.66 141 249.32 141 250 C141.99 250.33 142.98 250.66 144 251 C146.6875 253.4375 146.6875 253.4375 149 256 C149 256.66 149 257.32 149 258 C149.86625 258.37125 149.86625 258.37125 150.75 258.75 C153.32939979 260.18299988 155.06121592 261.78424676 157 264 C157 264.66 157 265.32 157 266 C157.99 266.33 158.98 266.66 160 267 C162.6875 269.4375 162.6875 269.4375 165 272 C165 272.66 165 273.32 165 274 C165.86625 274.37125 165.86625 274.37125 166.75 274.75 C169.32939979 276.18299988 171.06121592 277.78424676 173 280 C173 280.66 173 281.32 173 282 C173.99 282.33 174.98 282.66 176 283 C178.6875 285.4375 178.6875 285.4375 181 288 C181 288.66 181 289.32 181 290 C181.86625 290.37125 181.86625 290.37125 182.75 290.75 C185.32939979 292.18299988 187.06121592 293.78424676 189 296 C189 296.66 189 297.32 189 298 C189.99 298.33 190.98 298.66 192 299 C194.6875 301.4375 194.6875 301.4375 197 304 C197 304.66 197 305.32 197 306 C197.86625 306.37125 197.86625 306.37125 198.75 306.75 C201.32939979 308.18299988 203.06121592 309.78424676 205 312 C205 312.66 205 313.32 205 314 C205.99 314.33 206.98 314.66 208 315 C210.6875 317.4375 210.6875 317.4375 213 320 C213 320.66 213 321.32 213 322 C213.86625 322.37125 213.86625 322.37125 214.75 322.75 C217.32939979 324.18299988 219.06121592 325.78424676 221 328 C221 328.66 221 329.32 221 330 C221.99 330.33 222.98 330.66 224 331 C226.6875 333.4375 226.6875 333.4375 229 336 C229 336.66 229 337.32 229 338 C229.86625 338.37125 229.86625 338.37125 230.75 338.75 C233.32939979 340.18299988 235.06121592 341.78424676 237 344 C237 344.66 237 345.32 237 346 C237.99 346.33 238.98 346.66 240 347 C242.6875 349.4375 242.6875 349.4375 245 352 C245 352.66 245 353.32 245 354 C245.86625 354.37125 245.86625 354.37125 246.75 354.75 C249.32939979 356.18299988 251.06121592 357.78424676 253 360 C253 360.66 253 361.32 253 362 C253.99 362.33 254.98 362.66 256 363 C258.6875 365.4375 258.6875 365.4375 261 368 C261 368.66 261 369.32 261 370 C261.86625 370.37125 261.86625 370.37125 262.75 370.75 C265.32939979 372.18299988 267.06121592 373.78424676 269 376 C269 376.66 269 377.32 269 378 C269.99 378.33 270.98 378.66 272 379 C274.6875 381.4375 274.6875 381.4375 277 384 C277 384.66 277 385.32 277 386 C277.86625 386.37125 277.86625 386.37125 278.75 386.75 C281.32939979 388.18299988 283.06121592 389.78424676 285 392 C285 392.66 285 393.32 285 394 C285.99 394.33 286.98 394.66 288 395 C289.26504784 396.45480501 290.52933536 397.91242138 291.71875 399.4296875 C293.05303846 401.06500445 294.4866451 402.53063798 296 404 C292.41333583 409.12562291 288.91015002 413.13456275 284 417 C281.13917282 419.71778582 278.52698071 422.53914808 276 425.5625 C273.56804854 428.44227883 270.99445392 430.69657391 268 433 C265.13833918 435.71490898 262.52553788 438.53960555 260 441.5625 C257.56804854 444.44227883 254.99445392 446.69657391 252 449 C249.13833918 451.71490898 246.52553788 454.53960555 244 457.5625 C241.56804854 460.44227883 238.99445392 462.69657391 236 465 C233.13833918 467.71490898 230.52553788 470.53960555 228 473.5625 C225.56804854 476.44227883 222.99445392 478.69657391 220 481 C217.13833918 483.71490898 214.52553788 486.53960555 212 489.5625 C209.56804854 492.44227883 206.99445392 494.69657391 204 497 C201.13833918 499.71490898 198.52553788 502.53960555 196 505.5625 C193.56804854 508.44227883 190.99445392 510.69657391 188 513 C185.13833918 515.71490898 182.52553788 518.53960555 180 521.5625 C177.56804854 524.44227883 174.99445392 526.69657391 172 529 C169.13833918 531.71490898 166.52553788 534.53960555 164 537.5625 C161.56804854 540.44227883 158.99445392 542.69657391 156 545 C153.13833918 547.71490898 150.52553788 550.53960555 148 553.5625 C145.56804854 556.44227883 142.99445392 558.69657391 140 561 C137.13833918 563.71490898 134.52553788 566.53960555 132 569.5625 C129.56804854 572.44227883 126.99445392 574.69657391 124 577 C121.13833918 579.71490898 118.52553788 582.53960555 116 585.5625 C113.56804854 588.44227883 110.99445392 590.69657391 108 593 C105.13833918 595.71490898 102.52553788 598.53960555 100 601.5625 C97.56804854 604.44227883 94.99445392 606.69657391 92 609 C89.13833918 611.71490898 86.52553788 614.53960555 84 617.5625 C81.56804854 620.44227883 78.99445392 622.69657391 76 625 C73.13833918 627.71490898 70.52553788 630.53960555 68 633.5625 C65.56804854 636.44227883 62.99445392 638.69657391 60 641 C57.13833918 643.71490898 54.52553788 646.53960555 52 649.5625 C49.56804854 652.44227883 46.99445392 654.69657391 44 657 C41.13833918 659.71490898 38.52553788 662.53960555 36 665.5625 C33.56804854 668.44227883 30.99445392 670.69657391 28 673 C25.13833918 675.71490898 22.52553788 678.53960555 20 681.5625 C17.56804854 684.44227883 14.99445392 686.69657391 12 689 C10.31237149 690.6454378 8.6459651 692.31288577 7 694 C5.33333333 695.66666667 3.66666667 697.33333333 2 699 C-4.75667216 695.86561379 -9.39006954 690.70175609 -14 685 C-16.55612636 682.31279024 -19.1199811 679.90251536 -22 677.5625 C-25.07903881 674.93248768 -27.45078401 672.1374966 -30 669 C-32.55612636 666.31279024 -35.1199811 663.90251536 -38 661.5625 C-41.07903881 658.93248768 -43.45078401 656.1374966 -46 653 C-48.55612636 650.31279024 -51.1199811 647.90251536 -54 645.5625 C-57.07903881 642.93248768 -59.45078401 640.1374966 -62 637 C-64.55612636 634.31279024 -67.1199811 631.90251536 -70 629.5625 C-73.07903881 626.93248768 -75.45078401 624.1374966 -78 621 C-80.55612636 618.31279024 -83.1199811 615.90251536 -86 613.5625 C-89.07903881 610.93248768 -91.45078401 608.1374966 -94 605 C-96.55612636 602.31279024 -99.1199811 599.90251536 -102 597.5625 C-105.07903881 594.93248768 -107.45078401 592.1374966 -110 589 C-112.55612636 586.31279024 -115.1199811 583.90251536 -118 581.5625 C-121.07903881 578.93248768 -123.45078401 576.1374966 -126 573 C-128.55612636 570.31279024 -131.1199811 567.90251536 -134 565.5625 C-137.07903881 562.93248768 -139.45078401 560.1374966 -142 557 C-144.55612636 554.31279024 -147.1199811 551.90251536 -150 549.5625 C-153.07903881 546.93248768 -155.45078401 544.1374966 -158 541 C-160.55612636 538.31279024 -163.1199811 535.90251536 -166 533.5625 C-169.07903881 530.93248768 -171.45078401 528.1374966 -174 525 C-176.55612636 522.31279024 -179.1199811 519.90251536 -182 517.5625 C-185.07903881 514.93248768 -187.45078401 512.1374966 -190 509 C-192.55612636 506.31279024 -195.1199811 503.90251536 -198 501.5625 C-201.07903881 498.93248768 -203.45078401 496.1374966 -206 493 C-208.55612636 490.31279024 -211.1199811 487.90251536 -214 485.5625 C-217.07903881 482.93248768 -219.45078401 480.1374966 -222 477 C-224.55612636 474.31279024 -227.1199811 471.90251536 -230 469.5625 C-233.07903881 466.93248768 -235.45078401 464.1374966 -238 461 C-240.55612636 458.31279024 -243.1199811 455.90251536 -246 453.5625 C-249.07903881 450.93248768 -251.45078401 448.1374966 -254 445 C-256.55612636 442.31279024 -259.1199811 439.90251536 -262 437.5625 C-265.07903881 434.93248768 -267.45078401 432.1374966 -270 429 C-272.55612636 426.31279024 -275.1199811 423.90251536 -278 421.5625 C-280.54426556 419.38927317 -282.50533387 417.22847801 -284.56640625 414.61328125 C-286.91336102 411.97215776 -289.67738193 409.82317719 -292.42578125 407.61328125 C-294 406 -294 406 -294 403 C-291.625 400.3125 -291.625 400.3125 -289 398 C-288.34 398 -287.68 398 -287 398 C-286.79375 397.46890625 -286.5875 396.9378125 -286.375 396.390625 C-284.42038808 392.99226564 -281.77876283 390.48944072 -279 387.75 C-278.4534375 387.19570313 -277.906875 386.64140625 -277.34375 386.0703125 C-273.2533867 382 -273.2533867 382 -271 382 C-270.79375 381.46890625 -270.5875 380.9378125 -270.375 380.390625 C-268.42038808 376.99226564 -265.77876283 374.48944072 -263 371.75 C-262.4534375 371.19570313 -261.906875 370.64140625 -261.34375 370.0703125 C-257.2533867 366 -257.2533867 366 -255 366 C-254.79375 365.46890625 -254.5875 364.9378125 -254.375 364.390625 C-252.42038808 360.99226564 -249.77876283 358.48944072 -247 355.75 C-246.4534375 355.19570313 -245.906875 354.64140625 -245.34375 354.0703125 C-241.2533867 350 -241.2533867 350 -239 350 C-238.79375 349.46890625 -238.5875 348.9378125 -238.375 348.390625 C-236.42038808 344.99226564 -233.77876283 342.48944072 -231 339.75 C-230.4534375 339.19570313 -229.906875 338.64140625 -229.34375 338.0703125 C-225.2533867 334 -225.2533867 334 -223 334 C-222.79375 333.46890625 -222.5875 332.9378125 -222.375 332.390625 C-220.42038808 328.99226564 -217.77876283 326.48944072 -215 323.75 C-214.4534375 323.19570313 -213.906875 322.64140625 -213.34375 322.0703125 C-209.2533867 318 -209.2533867 318 -207 318 C-206.79375 317.46890625 -206.5875 316.9378125 -206.375 316.390625 C-204.42038808 312.99226564 -201.77876283 310.48944072 -199 307.75 C-198.4534375 307.19570313 -197.906875 306.64140625 -197.34375 306.0703125 C-193.2533867 302 -193.2533867 302 -191 302 C-190.79375 301.46890625 -190.5875 300.9378125 -190.375 300.390625 C-188.42038808 296.99226564 -185.77876283 294.48944072 -183 291.75 C-182.4534375 291.19570313 -181.906875 290.64140625 -181.34375 290.0703125 C-177.2533867 286 -177.2533867 286 -175 286 C-174.79375 285.46890625 -174.5875 284.9378125 -174.375 284.390625 C-172.42038808 280.99226564 -169.77876283 278.48944072 -167 275.75 C-166.4534375 275.19570313 -165.906875 274.64140625 -165.34375 274.0703125 C-161.2533867 270 -161.2533867 270 -159 270 C-158.79375 269.46890625 -158.5875 268.9378125 -158.375 268.390625 C-156.42038808 264.99226564 -153.77876283 262.48944072 -151 259.75 C-150.4534375 259.19570313 -149.906875 258.64140625 -149.34375 258.0703125 C-145.2533867 254 -145.2533867 254 -143 254 C-142.73195557 253.40670898 -142.46391113 252.81341797 -142.18774414 252.20214844 C-140.99062489 249.98261798 -139.77842255 248.53407824 -137.99609375 246.765625 C-137.13274414 245.90517578 -137.13274414 245.90517578 -136.25195312 245.02734375 C-135.65318359 244.44082031 -135.05441406 243.85429687 -134.4375 243.25 C-133.53354492 242.34701172 -133.53354492 242.34701172 -132.61132812 241.42578125 C-128.14038584 237 -128.14038584 237 -127 237 C-124.65042113 250.52234656 -123.12102754 264.05206376 -122.25 277.75 C-122.18494263 278.76577244 -122.11988525 279.78154488 -122.05285645 280.8280983 C-120.56437672 307.18146854 -123.71186359 327.87040862 -141.43801117 348.22027969 C-148.90224971 356.46794631 -156.79028712 364.18625926 -165 371.6875 C-165.9087941 372.51839645 -166.8175882 373.34929291 -167.75392151 374.20536804 C-179.15893105 384.56400702 -190.89838363 394.46676431 -203 404 C-199.07526899 408.69754423 -194.99426566 413.14860283 -190.65550232 417.4647522 C-189.74043029 418.38110587 -189.74043029 418.38110587 -188.80687195 419.31597173 C-186.78043064 421.34404832 -184.7504579 423.36855128 -182.72045898 425.39306641 C-181.25951002 426.85373303 -179.79878174 428.31462042 -178.33825684 429.77571106 C-174.38402671 433.73022748 -170.42672565 437.68165771 -166.46885943 441.6325345 C-162.32274539 445.77238153 -158.17947808 449.91507568 -154.03590393 454.0574646 C-146.18880253 461.90146041 -138.33915688 469.74290499 -130.48858839 477.58343065 C-121.56952771 486.49132703 -112.65329326 495.40204995 -103.73730361 504.31301999 C-88.49745899 519.5441856 -73.25549786 534.77323051 -58.01118469 549.99992371 C-57.36776141 550.6426074 -56.72433812 551.28529109 -56.06141716 551.94745004 C-54.88003671 553.12746064 -53.69864169 554.30745665 -52.51722807 555.48743403 C-51.01137846 556.99151571 -49.50565853 558.49572704 -48 560 C-46.64398477 561.3547194 -46.64398477 561.3547194 -45.26057529 562.73680687 C-43.70606921 564.29311314 -42.15727465 565.85513866 -40.61328125 567.421875 C-39.85402344 568.19015625 -39.09476563 568.9584375 -38.3125 569.75 C-37.16201172 570.91789063 -37.16201172 570.91789063 -35.98828125 572.109375 C-34.1389301 574.05230615 -34.1389301 574.05230615 -32 575 C-32.01030746 573.85037277 -32.02061493 572.70074554 -32.03123474 571.51628113 C-32.16847827 556.10920694 -32.29670477 540.70206042 -32.42055893 525.29487324 C-32.43182337 523.89364004 -32.44310715 522.49240701 -32.45441055 521.09117413 C-32.80623374 477.44839547 -33.05651136 433.80553315 -33.23837018 390.16171575 C-33.25393603 386.42644864 -33.26961283 382.69118202 -33.28530693 378.95591545 C-33.3797325 356.4341199 -33.47239537 333.91231785 -33.5541687 311.39047241 C-33.60594188 297.13790637 -33.66010759 282.88535206 -33.71875 268.6328125 C-33.723464 267.485387 -33.728178 266.3379615 -33.73303485 265.15576553 C-33.87956881 229.94596642 -34.20926327 194.74269742 -34.7051487 159.53624249 C-34.71566427 158.7894814 -34.72617983 158.04272031 -34.73701406 157.27333009 C-34.75792138 155.78971313 -34.77886601 154.30609669 -34.79984927 152.8224808 C-35.08763378 132.40734624 -35.28342369 111.99174008 -35.34106827 91.57456207 C-35.35661127 86.08245017 -35.38347611 80.5908047 -35.43212891 75.09887695 C-35.48117424 69.53649843 -35.50615519 63.97451337 -35.51332474 58.41192818 C-35.51998394 56.34781948 -35.53506425 54.28371805 -35.55921555 52.21973991 C-35.59059422 49.40762489 -35.59096219 46.59715363 -35.58349609 43.78491211 C-35.59990143 42.96230392 -35.61630676 42.13969574 -35.63320923 41.29216003 C-35.58623979 36.99633265 -35.40357739 35.48846059 -32.56289673 32.05030823 C-31.29426285 31.03540565 -31.29426285 31.03540565 -30 30 C-29.47535156 29.47535156 -28.95070313 28.95070313 -28.41015625 28.41015625 C-18.94010417 18.94010417 -9.47005208 9.47005208 0 0 Z " fill="#FDFDFD" transform="translate(385,96)"/>
<path d="M0 0 C3.97438099 2.26173655 6.2254729 4.35843319 9 8 C11.71490898 10.86166082 14.53960555 13.47446212 17.5625 16 C20.44227883 18.43195146 22.69657391 21.00554608 25 24 C27.71490898 26.86166082 30.53960555 29.47446212 33.5625 32 C36.44227883 34.43195146 38.69657391 37.00554608 41 40 C43.71490898 42.86166082 46.53960555 45.47446212 49.5625 48 C52.44429187 50.42742728 54.66249826 53.03916447 57 56 C57.9075 56.721875 58.815 57.44375 59.75 58.1875 C60.4925 58.785625 61.235 59.38375 62 60 C62 60.66 62 61.32 62 62 C62.99 62.33 63.98 62.66 65 63 C65.34484624 96.87488878 65.67745966 130.74989149 66 164.625 C66.01189708 165.87300778 66.02379416 167.12101556 66.03605175 168.40684175 C66.64000806 231.83357888 67.20795582 295.25740907 67.125 358.6875 C67.12243195 360.66632549 67.12243195 360.66632549 67.11981201 362.68512726 C67.09861796 377.79016579 67.05925113 392.89506434 67 408 C75.58 408 84.16 408 93 408 C86.25025716 415.87469997 86.25025716 415.87469997 83.66810608 418.44541931 C83.08098343 419.03247147 82.49386078 419.61952362 81.88894653 420.22436523 C80.95597244 421.14958984 80.95597244 421.14958984 80.00415039 422.09350586 C79.33176834 422.76442764 78.65938629 423.43534943 77.96662903 424.12660217 C76.51749112 425.57195735 75.06719991 427.01615696 73.61586189 428.4593029 C71.31331348 430.74899477 69.01398468 433.04187707 66.71543884 435.33558655 C61.00728185 441.03042953 55.29369347 446.7198132 49.58026123 452.40936279 C44.74562122 457.22420777 39.91307718 462.04113828 35.08325005 466.86081123 C32.82815004 469.10947271 30.57003751 471.35507802 28.31178284 473.60057068 C26.91612045 474.99259713 25.52060019 476.38476609 24.12524414 477.77709961 C23.50528564 478.39189178 22.88532715 479.00668396 22.24658203 479.6401062 C18.52002411 483.36621882 14.99240085 487.21588462 11.55541134 491.21096134 C9.46774316 493.61220337 7.34941302 495.85196524 5 498 C4.34 498 3.68 498 3 498 C2.99576806 497.16505225 2.99153612 496.3301045 2.98717594 495.46985531 C2.8500356 468.45904671 2.70835966 441.44826294 2.5625 414.4375 C2.55691952 413.40383458 2.55133904 412.37016916 2.54558945 411.30518055 C2.17786728 340.58884869 2.17786728 340.58884869 1.5 269.875 C1.03856203 231.11484327 0.74595685 192.35417774 0.48832905 153.5922128 C0.44993009 147.82495676 0.41031819 142.05771004 0.37011719 136.29046631 C0.0544846 90.85973752 -0.06105255 45.43180255 0 0 Z " fill="#FDFDFD" transform="translate(429,140)"/>
<path d="M0 0 C0.66 0 1.32 0 2 0 C2.93688062 80.96146478 3.45281184 161.92492381 3.94635038 242.8900312 C4.02907811 256.4547764 4.11399699 270.0195065 4.20043945 283.58422852 C4.30288363 299.65999421 4.40381614 315.73576839 4.50260442 331.81155699 C4.51325903 333.54467151 4.52391571 335.27778601 4.53457451 337.0109005 C4.53980774 337.86189037 4.54504097 338.71288025 4.55043279 339.5896577 C4.58620125 345.39036705 4.62296189 351.19106954 4.66017342 356.99176979 C4.94608427 401.66172795 5.05596854 446.32912644 5 491 C4.25473966 490.25460087 3.50947931 489.50920174 2.74163532 488.74121475 C0.54005415 486.5399713 -1.66248134 484.33970164 -3.86616516 482.14056396 C-4.59665573 481.41151855 -5.3271463 480.68247314 -6.07977295 479.93133545 C-6.86596008 479.14671936 -7.65214722 478.36210327 -8.4621582 477.55371094 C-16.99350241 469.03868982 -25.52233171 460.52115523 -34.04967976 452.00213242 C-39.20893539 446.8480501 -44.36913784 441.69492214 -49.53149414 436.54394531 C-54.04503237 432.04035091 -58.55683029 427.53502168 -63.06651753 423.02757096 C-65.4517202 420.64367429 -67.83780197 418.26067245 -70.22597694 415.87975311 C-72.88122865 413.23170188 -75.53339398 410.58059746 -78.18481445 407.92871094 C-78.98112274 407.13599792 -79.77743103 406.34328491 -80.59786987 405.52655029 C-81.31426132 404.80878418 -82.03065277 404.09101807 -82.76875305 403.35150146 C-83.39645253 402.72472378 -84.02415201 402.09794609 -84.67087269 401.45217514 C-86 400 -86 400 -86 399 C-77.42 399 -68.84 399 -60 399 C-60.02734726 397.13166504 -60.05469452 395.26333008 -60.08287048 393.33837891 C-60.9000891 336.66419057 -61.27354415 279.99166899 -61.51740873 223.312397 C-61.55729981 214.08224278 -61.60031194 204.85210526 -61.64418942 195.62196922 C-61.69808898 184.28290045 -61.75023455 172.94382414 -61.8016727 161.60474396 C-61.81604882 158.45335297 -61.83068407 155.30196329 -61.84536934 152.15057373 C-61.85223711 150.64464533 -61.85223711 150.64464533 -61.85924363 149.10829413 C-61.86850987 147.10811081 -61.87820347 145.10792943 -61.88833213 143.1077503 C-61.91185886 138.23984212 -61.92560279 133.37229321 -61.91800117 128.50432777 C-61.91147385 119.42547263 -61.99032029 110.37115757 -62.35298508 101.29850554 C-62.51924619 96.96423168 -62.63359482 92.62925555 -62.74317825 88.29322243 C-62.8086052 86.24601983 -62.89807021 84.19940734 -63.01455128 82.15447426 C-63.81153307 68.00674502 -61.51548554 59.58148597 -52.14352608 48.75036049 C-51.001715 47.5050461 -49.85193846 46.26694907 -48.69140625 45.0390625 C-47.8911949 44.18552877 -47.09098354 43.33199505 -46.26652336 42.45259666 C-44.36874295 40.5876978 -42.42261811 38.88063181 -40.36523438 37.1953125 C-38.90662048 35.940493 -37.44921926 34.68426276 -35.99291992 33.42675781 C-35.26298828 32.80524841 -34.53305664 32.18373901 -33.78100586 31.543396 C-30.02444605 28.29500733 -26.40522938 24.89997652 -22.77148438 21.515625 C-16.93329098 16.10353924 -11.02979987 10.77991256 -4.99555969 5.58677673 C-2.08908841 3.1293796 -2.08908841 3.1293796 0 0 Z " fill="#FDFDFD" transform="translate(334,147)"/>
<path d="M0 0 C0.969375 0.165 1.93875 0.33 2.9375 0.5 C4.95983571 0.85992293 4.95983571 0.85992293 7 1 C10.59161106 1 11.34031981 1.98918508 13.8001709 4.4269104 C14.29432495 4.93185028 14.788479 5.43679016 15.29760742 5.95703125 C15.82473831 6.48372406 16.3518692 7.01041687 16.89497375 7.55307007 C18.63900816 9.29919781 20.3721717 11.05571861 22.10546875 12.8125 C23.31121991 14.02384517 24.51763427 15.23453054 25.72468567 16.44458008 C28.90257209 19.63393062 32.07134777 22.83218718 35.23834229 26.03234863 C38.47052277 29.29519612 41.71119367 32.54958622 44.95117188 35.8046875 C51.30914443 42.19485186 57.65752914 48.59445199 64 55 C62 56 62 56 58 56 C57.505 56.99 57.505 56.99 57 58 C55.68133728 59.678298 54.34919532 61.34614767 53 63 C54.32 63.33 55.64 63.66 57 64 C57.33 65.98 57.66 67.96 58 70 C53.46479694 66.20301491 49.13986003 62.28288646 44.97290039 58.08642578 C44.41592468 57.5295961 43.85894897 56.97276642 43.28509521 56.39906311 C41.47023101 54.58351 39.65892089 52.76445606 37.84765625 50.9453125 C36.57992626 49.67571469 35.31197327 48.40633952 34.04380798 47.13717651 C30.72575224 43.81532426 27.41071211 40.49047867 24.09631348 37.16497803 C20.70601645 33.76440491 17.31284494 30.36670263 13.91992188 26.96875 C7.27714838 20.31528981 0.63756054 13.65866041 -6 7 C-3.72635823 4.57000464 -2.31726155 3.57194165 1 3 C0.67 2.01 0.34 1.02 0 0 Z " fill="#1D2127" transform="translate(272,579)"/>
<path d="M0 0 C4.88049925 3.9419417 9.0580583 8.11950075 13 13 C11.02 13 9.04 13 7 13 C6.67 13.66 6.34 14.32 6 15 C4.68133728 16.678298 3.34919532 18.34614767 2 20 C3.32 20.33 4.64 20.66 6 21 C6.33 22.98 6.66 24.96 7 27 C1.33870569 22.30233025 -3.85228904 17.25276628 -9 12 C-6.50907189 10.75453595 -5.58919267 11.2232422 -3 12 C-3 8.09567131 -3.68373308 5.61973402 -5 2 C-4.01 2 -3.02 2 -2 2 C-1.34 1.34 -0.68 0.68 0 0 Z " fill="#24282D" transform="translate(323,622)"/>
<path d="M0 0 C0.66 0.66 1.32 1.32 2 2 C1.53851563 2.39002197 1.07703125 2.78004395 0.6015625 3.18188477 C-5.20769229 8.16954905 -10.61487734 13.49860883 -16 18.9375 C-16.87011719 19.81212891 -17.74023438 20.68675781 -18.63671875 21.58789062 C-20.76013549 23.72297449 -22.88116378 25.86037205 -25 28 C-25.66 27.67 -26.32 27.34 -27 27 C-18.09 18.09 -9.18 9.18 0 0 Z " fill="#EDEEEF" transform="translate(466,625)"/>
<path d="M0 0 C0.99 0.99 1.98 1.98 3 3 C2.67 3.33 2.34 3.66 2 4 C2.99 4.66 3.98 5.32 5 6 C4.34 7.32 3.68 8.64 3 10 C0.9375 8.375 0.9375 8.375 -1 6 C-0.75 2.75 -0.75 2.75 0 0 Z " fill="#2C3034" transform="translate(483,187)"/>
<path d="M0 0 C1.14926266 0.95421808 2.29430541 1.91352045 3.4375 2.875 C4.07558594 3.40867187 4.71367187 3.94234375 5.37109375 4.4921875 C7 6 7 6 8 8 C6.35 7.67 4.7 7.34 3 7 C3 6.34 3 5.68 3 5 C1.68 5.33 0.36 5.66 -1 6 C-0.67 4.02 -0.34 2.04 0 0 Z " fill="#303538" transform="translate(366,776)"/>
<path d="M0 0 C1.14926266 0.95421808 2.29430541 1.91352045 3.4375 2.875 C4.07558594 3.40867187 4.71367187 3.94234375 5.37109375 4.4921875 C7 6 7 6 8 8 C6.35 7.67 4.7 7.34 3 7 C3 6.34 3 5.68 3 5 C1.68 5.33 0.36 5.66 -1 6 C-0.67 4.02 -0.34 2.04 0 0 Z " fill="#303538" transform="translate(350,760)"/>
<path d="M0 0 C1.14926266 0.95421808 2.29430541 1.91352045 3.4375 2.875 C4.07558594 3.40867187 4.71367187 3.94234375 5.37109375 4.4921875 C7 6 7 6 8 8 C6.35 7.67 4.7 7.34 3 7 C3 6.34 3 5.68 3 5 C1.68 5.33 0.36 5.66 -1 6 C-0.67 4.02 -0.34 2.04 0 0 Z " fill="#303538" transform="translate(334,744)"/>
<path d="M0 0 C1.14926266 0.95421808 2.29430541 1.91352045 3.4375 2.875 C4.07558594 3.40867187 4.71367187 3.94234375 5.37109375 4.4921875 C7 6 7 6 8 8 C6.35 7.67 4.7 7.34 3 7 C3 6.34 3 5.68 3 5 C1.68 5.33 0.36 5.66 -1 6 C-0.67 4.02 -0.34 2.04 0 0 Z " fill="#303538" transform="translate(318,728)"/>
<path d="M0 0 C1.14926266 0.95421808 2.29430541 1.91352045 3.4375 2.875 C4.07558594 3.40867187 4.71367187 3.94234375 5.37109375 4.4921875 C7 6 7 6 8 8 C6.35 7.67 4.7 7.34 3 7 C3 6.34 3 5.68 3 5 C1.68 5.33 0.36 5.66 -1 6 C-0.67 4.02 -0.34 2.04 0 0 Z " fill="#303538" transform="translate(302,712)"/>
<path d="M0 0 C1.14926266 0.95421808 2.29430541 1.91352045 3.4375 2.875 C4.07558594 3.40867187 4.71367187 3.94234375 5.37109375 4.4921875 C7 6 7 6 8 8 C6.35 7.67 4.7 7.34 3 7 C3 6.34 3 5.68 3 5 C1.68 5.33 0.36 5.66 -1 6 C-0.67 4.02 -0.34 2.04 0 0 Z " fill="#303538" transform="translate(286,696)"/>
<path d="M0 0 C1.14926266 0.95421808 2.29430541 1.91352045 3.4375 2.875 C4.07558594 3.40867187 4.71367187 3.94234375 5.37109375 4.4921875 C7 6 7 6 8 8 C6.35 7.67 4.7 7.34 3 7 C3 6.34 3 5.68 3 5 C1.68 5.33 0.36 5.66 -1 6 C-0.67 4.02 -0.34 2.04 0 0 Z " fill="#303538" transform="translate(270,680)"/>
<path d="M0 0 C1.14926266 0.95421808 2.29430541 1.91352045 3.4375 2.875 C4.07558594 3.40867187 4.71367187 3.94234375 5.37109375 4.4921875 C7 6 7 6 8 8 C6.35 7.67 4.7 7.34 3 7 C3 6.34 3 5.68 3 5 C1.68 5.33 0.36 5.66 -1 6 C-0.67 4.02 -0.34 2.04 0 0 Z " fill="#303538" transform="translate(254,664)"/>
<path d="M0 0 C1.14926266 0.95421808 2.29430541 1.91352045 3.4375 2.875 C4.07558594 3.40867187 4.71367187 3.94234375 5.37109375 4.4921875 C7 6 7 6 8 8 C6.35 7.67 4.7 7.34 3 7 C3 6.34 3 5.68 3 5 C1.68 5.33 0.36 5.66 -1 6 C-0.67 4.02 -0.34 2.04 0 0 Z " fill="#303538" transform="translate(238,648)"/>
<path d="M0 0 C1.14926266 0.95421808 2.29430541 1.91352045 3.4375 2.875 C4.07558594 3.40867187 4.71367187 3.94234375 5.37109375 4.4921875 C7 6 7 6 8 8 C6.35 7.67 4.7 7.34 3 7 C3 6.34 3 5.68 3 5 C1.68 5.33 0.36 5.66 -1 6 C-0.67 4.02 -0.34 2.04 0 0 Z " fill="#303538" transform="translate(222,632)"/>
<path d="M0 0 C1.65 0 3.3 0 5 0 C-1.15034169 7.48291572 -1.15034169 7.48291572 -5 10 C-4.4409112 6.75728494 -3.5867822 5.06942576 -1 3 C-0.34 3 0.32 3 1 3 C0.67 2.01 0.34 1.02 0 0 Z " fill="#26292D" transform="translate(468,618)"/>
<path d="M0 0 C1.14926266 0.95421808 2.29430541 1.91352045 3.4375 2.875 C4.07558594 3.40867187 4.71367187 3.94234375 5.37109375 4.4921875 C7 6 7 6 8 8 C6.35 7.67 4.7 7.34 3 7 C3 6.34 3 5.68 3 5 C1.68 5.33 0.36 5.66 -1 6 C-0.67 4.02 -0.34 2.04 0 0 Z " fill="#303538" transform="translate(206,616)"/>
<path d="M0 0 C1.14926266 0.95421808 2.29430541 1.91352045 3.4375 2.875 C4.07558594 3.40867187 4.71367187 3.94234375 5.37109375 4.4921875 C7 6 7 6 8 8 C6.35 7.67 4.7 7.34 3 7 C3 6.34 3 5.68 3 5 C1.68 5.33 0.36 5.66 -1 6 C-0.67 4.02 -0.34 2.04 0 0 Z " fill="#303538" transform="translate(190,600)"/>
<path d="M0 0 C1.14926266 0.95421808 2.29430541 1.91352045 3.4375 2.875 C4.07558594 3.40867187 4.71367187 3.94234375 5.37109375 4.4921875 C7 6 7 6 8 8 C6.35 7.67 4.7 7.34 3 7 C3 6.34 3 5.68 3 5 C1.68 5.33 0.36 5.66 -1 6 C-0.67 4.02 -0.34 2.04 0 0 Z " fill="#303538" transform="translate(174,584)"/>
<path d="M0 0 C1.14926266 0.95421808 2.29430541 1.91352045 3.4375 2.875 C4.07558594 3.40867187 4.71367187 3.94234375 5.37109375 4.4921875 C7 6 7 6 8 8 C6.35 7.67 4.7 7.34 3 7 C3 6.34 3 5.68 3 5 C1.68 5.33 0.36 5.66 -1 6 C-0.67 4.02 -0.34 2.04 0 0 Z " fill="#303538" transform="translate(158,568)"/>
<path d="M0 0 C1.14926266 0.95421808 2.29430541 1.91352045 3.4375 2.875 C4.07558594 3.40867187 4.71367187 3.94234375 5.37109375 4.4921875 C7 6 7 6 8 8 C6.35 7.67 4.7 7.34 3 7 C3 6.34 3 5.68 3 5 C1.68 5.33 0.36 5.66 -1 6 C-0.67 4.02 -0.34 2.04 0 0 Z " fill="#303538" transform="translate(142,552)"/>
<path d="M0 0 C1.14926266 0.95421808 2.29430541 1.91352045 3.4375 2.875 C4.07558594 3.40867187 4.71367187 3.94234375 5.37109375 4.4921875 C7 6 7 6 8 8 C6.35 7.67 4.7 7.34 3 7 C3 6.34 3 5.68 3 5 C1.68 5.33 0.36 5.66 -1 6 C-0.67 4.02 -0.34 2.04 0 0 Z " fill="#303538" transform="translate(126,536)"/>
<path d="M0 0 C1.14926266 0.95421808 2.29430541 1.91352045 3.4375 2.875 C4.07558594 3.40867187 4.71367188 3.94234375 5.37109375 4.4921875 C7 6 7 6 8 8 C6.35 7.67 4.7 7.34 3 7 C3 6.34 3 5.68 3 5 C1.68 5.33 0.36 5.66 -1 6 C-0.67 4.02 -0.34 2.04 0 0 Z " fill="#303538" transform="translate(110,520)"/>
<path d="M0 0 C1.67542976 0.28604898 3.34385343 0.61781233 5 1 C3.63016497 4.16115776 3.0109362 4.9927092 0 7 C-0.38133299 5.0085944 -0.71325582 3.00720923 -1 1 C-0.67 0.67 -0.34 0.34 0 0 Z " fill="#21262A" transform="translate(530,554)"/>
<path d="M0 0 C0.268125 0.61875 0.53625 1.2375 0.8125 1.875 C1.95556848 4.2995233 1.95556848 4.2995233 5 6 C4.34 7.32 3.68 8.64 3 10 C0.9375 8.375 0.9375 8.375 -1 6 C-0.75 2.75 -0.75 2.75 0 0 Z " fill="#2D3236" transform="translate(475,179)"/>
<path d="M0 0 C0.268125 0.61875 0.53625 1.2375 0.8125 1.875 C1.95556848 4.2995233 1.95556848 4.2995233 5 6 C4.34 7.32 3.68 8.64 3 10 C0.9375 8.375 0.9375 8.375 -1 6 C-0.75 2.75 -0.75 2.75 0 0 Z " fill="#2D3236" transform="translate(459,163)"/>
<path d="M0 0 C0.33 1.32 0.66 2.64 1 4 C0.01 4.66 -0.98 5.32 -2 6 C-2.99 5.67 -3.98 5.34 -5 5 C-5.33 4.01 -5.66 3.02 -6 2 C-3 0 -3 0 0 0 Z " fill="#202429" transform="translate(526,561)"/>
<path d="M0 0 C1.32 0 2.64 0 4 0 C3.6875 1.875 3.6875 1.875 3 4 C2.01 4.66 1.02 5.32 0 6 C-0.66 4.68 -1.32 3.36 -2 2 C-1.34 1.34 -0.68 0.68 0 0 Z " fill="#272B30" transform="translate(572,513)"/>
<path d="M0 0 C0.99 0.99 1.98 1.98 3 3 C2.67 3.33 2.34 3.66 2 4 C2.66 4.33 3.32 4.66 4 5 C3.67 5.66 3.34 6.32 3 7 C2.01 7 1.02 7 0 7 C-1.125 2.25 -1.125 2.25 0 0 Z " fill="#292D32" transform="translate(467,171)"/>
<path d="M0 0 C2.97 0.495 2.97 0.495 6 1 C6.33 1.99 6.66 2.98 7 4 C6.34 4.66 5.68 5.32 5 6 C3.35 4.02 1.7 2.04 0 0 Z " fill="#34383D" transform="translate(308,627)"/>
<path d="M0 0 C2.2477975 2.05233685 3.0022242 3.00667261 4 6 C3.01 6 2.02 6 1 6 C-0.6875 4 -0.6875 4 -2 2 C-1.34 2 -0.68 2 0 2 C0 1.34 0 0.68 0 0 Z " fill="#30333A" transform="translate(305,620)"/>
<path d="M0 0 C0.28875 0.639375 0.5775 1.27875 0.875 1.9375 C1.82823451 4.15206079 1.82823451 4.15206079 4 5 C3.67 5.66 3.34 6.32 3 7 C2.01 7 1.02 7 0 7 C-1.125 2.25 -1.125 2.25 0 0 Z " fill="#2B2F34" transform="translate(451,155)"/>
<path d="M0 0 C0.28875 0.639375 0.5775 1.27875 0.875 1.9375 C1.82823451 4.15206079 1.82823451 4.15206079 4 5 C3.67 5.66 3.34 6.32 3 7 C2.01 7 1.02 7 0 7 C-1.125 2.25 -1.125 2.25 0 0 Z " fill="#2B3034" transform="translate(443,147)"/>
<path d="M0 0 C0.28875 0.639375 0.5775 1.27875 0.875 1.9375 C1.82823451 4.15206079 1.82823451 4.15206079 4 5 C3.67 5.66 3.34 6.32 3 7 C2.01 7 1.02 7 0 7 C-1.125 2.25 -1.125 2.25 0 0 Z " fill="#2B2F34" transform="translate(435,139)"/>
<path d="M0 0 C0.28875 0.639375 0.5775 1.27875 0.875 1.9375 C1.82823451 4.15206079 1.82823451 4.15206079 4 5 C3.67 5.66 3.34 6.32 3 7 C2.01 7 1.02 7 0 7 C-1.125 2.25 -1.125 2.25 0 0 Z " fill="#2B3034" transform="translate(403,107)"/>
<path d="M0 0 C0.28875 0.639375 0.5775 1.27875 0.875 1.9375 C1.82823451 4.15206079 1.82823451 4.15206079 4 5 C3.67 5.66 3.34 6.32 3 7 C2.01 7 1.02 7 0 7 C-1.125 2.25 -1.125 2.25 0 0 Z " fill="#2B3034" transform="translate(395,99)"/>
<path d="M0 0 C1.65 1.65 3.3 3.3 5 5 C3.02 5.33 1.04 5.66 -1 6 C-0.67 4.02 -0.34 2.04 0 0 Z " fill="#2C3034" transform="translate(374,784)"/>
<path d="M0 0 C1.65 1.65 3.3 3.3 5 5 C3.02 5.33 1.04 5.66 -1 6 C-0.67 4.02 -0.34 2.04 0 0 Z " fill="#2C3034" transform="translate(358,768)"/>
<path d="M0 0 C1.65 1.65 3.3 3.3 5 5 C3.02 5.33 1.04 5.66 -1 6 C-0.67 4.02 -0.34 2.04 0 0 Z " fill="#2C3034" transform="translate(342,752)"/>
<path d="M0 0 C1.65 1.65 3.3 3.3 5 5 C3.02 5.33 1.04 5.66 -1 6 C-0.67 4.02 -0.34 2.04 0 0 Z " fill="#2C3034" transform="translate(326,736)"/>
<path d="M0 0 C1.65 1.65 3.3 3.3 5 5 C3.02 5.33 1.04 5.66 -1 6 C-0.67 4.02 -0.34 2.04 0 0 Z " fill="#2C3034" transform="translate(310,720)"/>
<path d="M0 0 C1.65 1.65 3.3 3.3 5 5 C3.02 5.33 1.04 5.66 -1 6 C-0.67 4.02 -0.34 2.04 0 0 Z " fill="#2C3034" transform="translate(294,704)"/>
<path d="M0 0 C1.65 1.65 3.3 3.3 5 5 C3.02 5.33 1.04 5.66 -1 6 C-0.67 4.02 -0.34 2.04 0 0 Z " fill="#2C3034" transform="translate(278,688)"/>
<path d="M0 0 C1.65 1.65 3.3 3.3 5 5 C3.02 5.33 1.04 5.66 -1 6 C-0.67 4.02 -0.34 2.04 0 0 Z " fill="#2C3034" transform="translate(262,672)"/>
<path d="M0 0 C1.65 1.65 3.3 3.3 5 5 C3.02 5.33 1.04 5.66 -1 6 C-0.67 4.02 -0.34 2.04 0 0 Z " fill="#2C3034" transform="translate(246,656)"/>
<path d="M0 0 C1.65 1.65 3.3 3.3 5 5 C3.02 5.33 1.04 5.66 -1 6 C-0.67 4.02 -0.34 2.04 0 0 Z " fill="#2C3034" transform="translate(230,640)"/>
<path d="M0 0 C1.65 1.65 3.3 3.3 5 5 C3.02 5.33 1.04 5.66 -1 6 C-0.67 4.02 -0.34 2.04 0 0 Z " fill="#2C3034" transform="translate(214,624)"/>
<path d="M0 0 C1.65 1.65 3.3 3.3 5 5 C3.02 5.33 1.04 5.66 -1 6 C-0.67 4.02 -0.34 2.04 0 0 Z " fill="#2C3034" transform="translate(198,608)"/>
<path d="M0 0 C1.65 1.65 3.3 3.3 5 5 C3.02 5.33 1.04 5.66 -1 6 C-0.67 4.02 -0.34 2.04 0 0 Z " fill="#2C3034" transform="translate(182,592)"/>
<path d="M0 0 C1.65 1.65 3.3 3.3 5 5 C3.02 5.33 1.04 5.66 -1 6 C-0.67 4.02 -0.34 2.04 0 0 Z " fill="#2C3034" transform="translate(166,576)"/>
<path d="M0 0 C1.65 1.65 3.3 3.3 5 5 C3.02 5.33 1.04 5.66 -1 6 C-0.67 4.02 -0.34 2.04 0 0 Z " fill="#2C3034" transform="translate(150,560)"/>
<path d="M0 0 C1.65 1.65 3.3 3.3 5 5 C3.02 5.33 1.04 5.66 -1 6 C-0.67 4.02 -0.34 2.04 0 0 Z " fill="#2C3034" transform="translate(134,544)"/>
<path d="M0 0 C1.65 1.65 3.3 3.3 5 5 C3.02 5.33 1.04 5.66 -1 6 C-0.67 4.02 -0.34 2.04 0 0 Z " fill="#2C3034" transform="translate(118,528)"/>
<path d="M0 0 C1.65 1.65 3.3 3.3 5 5 C3.02 5.33 1.04 5.66 -1 6 C-0.67 4.02 -0.34 2.04 0 0 Z " fill="#2C3034" transform="translate(102,512)"/>
</svg>
