<svg xmlns="http://www.w3.org/2000/svg" width="791" height="889" viewBox="0 0 791 889">
<g>
<path d="M 0.00 0.00 L 791.00 0.00 L 791.00 889.00 L 0.00 889.00 ZM 238.75 648.25 L 386.50 796.00 L 682.00 500.50 L 596.75 415.25 C549.87,368.36 511.17,330.00 510.75,330.00 C510.34,330.00 510.00,350.14 510.00,374.75 L 510.00 419.49 L 550.50 460.00 L 591.00 500.51 L 504.66 586.84 L 418.32 673.17 L 417.67 602.34 C417.32,563.38 416.52,439.92 415.89,328.00 L 414.76 124.50 L 401.14 110.75 C393.65,103.19 387.07,97.00 386.50,97.00 C385.94,97.00 377.50,104.99 367.76,114.75 L 350.03 132.50 L 351.03 241.00 C352.40,391.51 353.93,670.40 353.37,670.96 C353.12,671.21 314.46,632.96 267.46,585.96 L 182.00 500.51 L 220.00 462.50 L 258.00 424.49 L 258.00 333.50 L 174.50 417.00 L 91.00 500.50 ZM 432.64 591.88 L 433.24 638.25 L 478.13 593.38 L 523.02 548.50 L 496.50 547.50 L 496.28 529.00 C496.16,518.83 495.61,441.44 495.06,357.04 L 494.06 203.57 L 462.29 171.79 C444.81,154.30 430.14,140.00 429.69,140.00 C429.24,140.00 429.12,149.56 429.43,161.25 C429.73,172.94 430.21,223.68 430.49,274.00 C431.76,501.49 432.07,548.39 432.64,591.88 ZM 293.75 592.25 L 338.50 637.01 L 338.78 613.26 C339.20,578.71 336.14,148.81 335.48,148.15 C335.17,147.84 320.79,161.74 303.51,179.04 L 272.11 210.50 L 273.06 337.00 C273.58,406.58 274.12,482.06 274.25,504.75 L 274.50 546.00 L 261.75 546.00 C254.74,546.00 249.00,546.34 249.00,546.75 C249.00,547.16 269.14,567.63 293.75,592.25 Z" fill="rgb(23,28,34)"/>
<path d="M 238.75 648.25 L 91.00 500.50 L 174.50 417.00 L 258.00 333.50 L 258.00 379.00 L 258.00 424.49 L 220.00 462.50 L 182.00 500.51 L 267.46 585.96 C314.46,632.96 353.12,671.21 353.37,670.96 C353.93,670.40 352.40,391.51 351.03,241.00 L 350.03 132.50 L 367.76 114.75 C377.50,104.99 385.94,97.00 386.50,97.00 C387.07,97.00 393.65,103.19 401.14,110.75 L 414.76 124.50 L 415.89 328.00 C416.52,439.92 417.32,563.38 417.67,602.34 L 418.32 673.17 L 504.66 586.84 L 591.00 500.51 L 550.50 460.00 L 510.00 419.49 L 510.00 374.75 C510.00,350.14 510.34,330.00 510.75,330.00 C511.17,330.00 549.87,368.36 596.75,415.25 L 682.00 500.50 L 534.25 648.25 L 386.50 796.00 L 238.75 648.25 ZM 432.64 591.88 C432.07,548.39 431.76,501.49 430.49,274.00 C430.21,223.68 429.73,172.94 429.43,161.25 C429.12,149.56 429.24,140.00 429.69,140.00 C430.14,140.00 444.81,154.30 462.29,171.79 L 494.06 203.57 L 495.06 357.04 C495.61,441.44 496.16,518.83 496.28,529.00 L 496.50 547.50 L 509.76 548.00 L 523.02 548.50 L 478.13 593.38 L 433.24 638.25 L 432.64 591.88 ZM 293.75 592.25 C269.14,567.63 249.00,547.16 249.00,546.75 C249.00,546.34 254.74,546.00 261.75,546.00 L 274.50 546.00 L 274.25 504.75 C274.12,482.06 273.58,406.58 273.06,337.00 L 272.11 210.50 L 303.51 179.04 C320.79,161.74 335.17,147.84 335.48,148.15 C336.14,148.81 339.20,578.71 338.78,613.26 L 338.50 637.01 L 293.75 592.25 Z" fill="rgb(254,254,254)"/>
</g>
</svg>